<svg height="512" viewBox="0 0 60 60" width="512" xmlns="http://www.w3.org/2000/svg"><g id="Page-1" fill="none" fill-rule="evenodd"><g id="004---Old-Camera" fill-rule="nonzero"><path id="Rectangle-path" d="m1 18h9v8h-9z" fill="#3f51b4"/><path id="Shape" d="m51 38.2-4-.78-4-.77-4-.78-4-.77-4.03-.78-3.97-.77-4.15-.8v-21.5l4.15-.8 3.97-.77 4.03-.78 4-.77 4-.78 4-.77 4-.84z" fill="#ff5722"/><rect id="Rectangle-path" fill="#ffdb00" height="42" rx="2" width="8" x="51" y="1"/><path id="Shape" d="m57 1h-3c1.1032019.0032948 1.9967052.89679813 2 2v38c-.0032948 1.1032019-.8967981 1.9967052-2 2h3c1.1032019-.0032948 1.9967052-.8967981 2-2v-38c-.0032948-1.10320187-.8967981-1.9967052-2-2z" fill="#fdc008"/><g fill="#ff9701"><path id="Shape" d="m47 6v32c0 1.1045695-.8954305 2-2 2s-2-.8954305-2-2v-32c.0032948-1.10320187.8967981-1.9967052 2-2 1.1011688.00816722 1.9918328.89883122 2 2z"/><path id="Shape" d="m39 8v28c0 1.1045695-.8954305 2-2 2s-2-.8954305-2-2v-28c.0032948-1.10320187.8967981-1.9967052 2-2 1.1011688.00816722 1.9918328.89883122 2 2z"/><path id="Shape" d="m31 10v24c.0004056.1073874-.0096418.2145593-.03.32-.1778047 1.0175277-1.1012286 1.7322582-2.1308351 1.6492672-1.0296066-.0829909-1.8266316-.9363974-1.8391649-1.9692672v-24c.0032948-1.10320187.8967981-1.9967052 2-2 .5305905-.00282307 1.0395388.2101411 1.41.59.3027924.29086982.4998668.67446123.56 1.09.0203582.10544074.0304056.21261265.03.32z"/><path id="Shape" d="m23 12v20c.0013564.2575832-.0496774.5127526-.15.75-.3622358.881915-1.2966284 1.3855253-2.2324461 1.2032231-.9358176-.1823021-1.6128465-.9998257-1.6175539-1.9532231v-20c.0032948-1.1032019.8967981-1.9967052 2-2 .8120777.0062409 1.5412079.4988964 1.85 1.25.1003226.2372474.1513564.4924168.15.75z"/></g><rect id="Rectangle-path" fill="#ffdb00" height="28" rx="1" width="5" x="14" y="8"/><path id="Shape" d="m18 8h-3c.5522847 0 1 .44771525 1 1v26c0 .5522847-.4477153 1-1 1h3c.5522847 0 1-.4477153 1-1v-26c0-.55228475-.4477153-1-1-1z" fill="#fdc008"/><rect id="Rectangle-path" fill="#fdc008" height="18" rx="1" width="4" x="10" y="13"/><path id="Rectangle-path" d="m1 18h4v8h-4z" fill="#ced7db"/><path id="Shape" d="m19 35v16h-4v-15h3c.5522847 0 1-.4477153 1-1z" fill="#9d9d9d"/><rect id="Rectangle-path" fill="#9f522d" height="8" rx="1" width="52" x="7" y="51"/><path id="Shape" d="m58 51h-3c.5522847 0 1 .4477153 1 1v6c0 .5522847-.4477153 1-1 1h3c.5522847 0 1-.4477153 1-1v-6c0-.5522847-.4477153-1-1-1z" fill="#783e22"/><path id="Shape" d="m13 51h40v1c0 1.6568542-1.3431458 3-3 3h-34c-1.6568542 0-3-1.3431458-3-3z" fill="#9f522d"/><path id="Shape" d="m55 43v8h-4v-10c.0032948 1.1032019.8967981 1.9967052 2 2z" fill="#9d9d9d"/><path id="Shape" d="m57 0h-4c-1.6568542 0-3 1.34314575-3 3v1.929l-2.071.434c-.330482-1.49217505-1.7299037-2.49738535-3.2494926-2.33412373s-2.6735416 1.4428014-2.6795074 2.97112373v.526l-2.2.429c-.505388-1.35806265-1.9107985-2.15927636-3.3368883-1.90233433-1.4260897.25694203-2.4634883 1.49828256-2.4631117 2.94733433v.075l-2.4.464c-.6242883-1.1309429-1.9063342-1.73065106-3.1745667-1.48498085-1.2682326.24567021-2.2336069 1.28072768-2.3904333 2.56298085l-2.705.521c-.7813539-1.01286183-2.1308523-1.39947489-3.33-.954v-.184c0-1.1045695-.8954305-2-2-2h-3c-1.1045695 0-2 .8954305-2 2v3h-2c-1.1045695 0-2 .8954305-2 2v3h-7v-1c0-.5522847-.44771525-1-1-1s-1 .4477153-1 1v12c0 .5522847.44771525 1 1 1s1-.4477153 1-1v-1h7v3c0 1.1045695.8954305 2 2 2h2v3c.0023967.607798.28229 1.181211.76 1.557l-4.481 13.443h-1.279c-1.1045695 0-2 .8954305-2 2v6c0 1.1045695.8954305 2 2 2h50c1.1045695 0 2-.8954305 2-2v-6c0-1.1045695-.8954305-2-2-2h-2v-6h1c1.6568542 0 3-1.3431458 3-3v-38c0-1.65685425-1.3431458-3-3-3zm-41 37h2v13h-2zm10-4.661-2-.386v-19.906l2-.386zm-2.666 1.523 2.705.521c.1591003 1.279613 1.1234113 2.3115998 2.3893117 2.5569946 1.2659004.2453949 2.5459736-.351518 3.1716883-1.4789946l2.4.464v.075c-.0003766 1.4490518 1.037022 2.6903923 2.4631117 2.9473343 1.4260898.2569421 2.8315003-.5442717 3.3368883-1.9023343l2.2.429v.526c.0024529 1.534134 1.1619444 2.8192321 2.6877479 2.9789092s2.926233-.8575223 3.2462521-2.3579092l2.066.4v1.7l-5.566 9.279h-24.434v-15.184c1.2002943.4474524 2.5520757.0606499 3.334-.954zm-8.334 18.138h37c0 1.1045695-.8954305 2-2 2h-34c-1.1045695 0-2-.8954305-2-2zm31.766-2 3.234-5.39v5.39zm3.234-13.014-2-.39v-29.204l2-.42zm-6-30.986c0-.55228475.4477153-1 1-1s1 .44771525 1 1v32c0 .5522847-.4477153 1-1 1s-1-.4477153-1-1zm-2 29.436-2-.39v-26.092l2-.39zm-6-27.436c0-.55228475.4477153-1 1-1s1 .44771525 1 1v28c0 .5522847-.4477153 1-1 1s-1-.4477153-1-1zm-2 25.888-2-.388v-23l2-.388zm-6-23.888c0-.55228475.4477153-1 1-1s1 .44771525 1 1v24c0 .5522847-.4477153 1-1 1s-1-.4477153-1-1zm-7 1c.5522847 0 1 .4477153 1 1v20c0 .5522847-.4477153 1-1 1s-1-.4477153-1-1v-20c0-.5522847.4477153-1 1-1zm-6-2h3v26h-3zm-13 10h2v6h-2zm4 6v-6h3v6zm5 5v-16h2v16zm3 12.162v7.838h-2.612zm44 15.838h-50v-6h4c0 2.209139 1.790861 4 4 4h34c2.209139 0 4-1.790861 4-4h4zm-4-8h-2v-6.184c.320257.1184378.6585603.1806856 1 .184h1zm4-9c0 .5522847-.4477153 1-1 1h-4c-.5522847 0-1-.4477153-1-1v-38c0-.55228475.4477153-1 1-1h4c.5522847 0 1 .44771525 1 1z" fill="#000"/><circle id="Oval" cx="55" cy="9" fill="#000" r="1"/><circle id="Oval" cx="55" cy="22" fill="#000" r="1"/><circle id="Oval" cx="55" cy="35" fill="#000" r="1"/></g></g></svg>